<svg xmlns="http://www.w3.org/2000/svg" xmlns:xlink="http://www.w3.org/1999/xlink" version="1.1" x="0px" y="0px" viewBox="0 0 100 125" enable-background="new 0 0 100 100" xml:space="preserve">
  <g>
  <path d="M89.76,26.92L73.08,10.23c-0.37-0.37-0.97-0.37-1.34,0L50.22,31.75l-3.8-3.79c-0.08-0.09-0.18-0.17-0.3-0.23l-2.25-1.11   l-1.14-0.56L13.25,11.54c-0.36-0.17-0.8-0.1-1.09,0.19c-0.29,0.28-0.36,0.72-0.18,1.09l16.18,32.87c0.06,0.12,0.15,0.21,0.24,0.29   l-0.01,0.01l3.8,3.79L9.73,72.24c-0.37,0.37-0.37,0.97,0,1.34l16.69,16.68c0.37,0.37,0.97,0.37,1.34,0l22.45-22.45l9.56,9.551   c0.37,0.38,0.971,0.37,1.341,0L77.8,60.68c0.37-0.37,0.37-0.97,0-1.35l-9.56-9.55l21.52-21.52C90.13,27.89,90.13,27.29,89.76,26.92   z M28.33,41.73l-0.42-0.85l-8.82-17.93l4.3-4.3l17.93,8.82l1.22,0.61c-0.9,0.3-1.65,0.75-2.25,1.35c-1.32,1.32-1.52,3-1.49,4.1   c-0.98,0.16-1.88,0.61-2.61,1.34c-1.06,1.06-1.58,2.48-1.83,3.36c-2.16,0.1-3.82,0.71-4.93,1.82   C28.91,40.57,28.56,41.15,28.33,41.73z M27.08,88.25L11.74,72.91L22.2,62.44l4.98,4.979c0.37,0.37,0.97,0.37,1.34,0   s0.37-0.97,0-1.34l-4.98-4.98l2.2-2.189l4.98,4.97c0.37,0.37,0.97,0.37,1.34,0s0.37-0.97,0-1.34l-4.98-4.97l2.2-2.2l4.98,4.97   c0.36,0.37,0.97,0.37,1.34,0s0.37-0.96,0-1.34l-4.98-4.97l2.2-2.2l9.4,9.4c0.37,0.369,0.97,0.369,1.34,0   c0.01-0.011,0.02-0.03,0.03-0.04l5.28,5.27L27.08,88.25z M75.79,60.01L60.44,75.35l-8.891-8.88l-1.34-1.35L34.86,49.78l-1.33-1.34   l-3.65-3.64c-0.1-0.6-0.25-2.27,0.89-3.41c0.87-0.87,2.33-1.3,4.35-1.28c0.47,0,0.87-0.34,0.94-0.81c0-0.02,0.31-1.92,1.47-3.08   c0.63-0.63,1.37-0.91,2.28-0.85c0.3,0.02,0.59-0.11,0.78-0.34s0.26-0.54,0.2-0.83c-0.01-0.02-0.48-2.11,0.84-3.43   c0.76-0.77,2.01-1.17,3.69-1.23l3.56,3.56l1.34,1.34L65.56,49.78l1.341,1.34L75.79,60.01z M66.9,48.44l-9.811-9.81   c0.061-0.3-0.03-0.62-0.26-0.85l-4.98-4.98l2.19-2.2l4.979,4.98c0.37,0.37,0.971,0.37,1.341,0s0.37-0.97,0-1.34l-4.971-4.98   l2.19-2.2l4.979,4.98c0.37,0.37,0.971,0.37,1.341,0c0.369-0.37,0.369-0.97,0-1.34l-4.98-4.98l2.2-2.2l9.399,9.41   c0.37,0.37,0.971,0.37,1.341,0c0.37-0.37,0.37-0.97,0-1.35l-9.4-9.4l2.08-2.07l0.12-0.12l4.979,4.97c0.37,0.37,0.971,0.37,1.341,0   c0.369-0.37,0.369-0.97,0-1.34L66,18.65l2.2-2.2l4.97,4.97c0.37,0.37,0.98,0.38,1.34,0c0.38-0.37,0.38-0.96,0-1.34l-4.97-4.97   l2.87-2.87l15.34,15.35L66.9,48.44z"/>
  <path d="M21.42,71.84c-1.87,1.87-1.87,4.92,0,6.79s4.92,1.87,6.79,0c1.88-1.87,1.88-4.92,0-6.79   C26.34,69.96,23.29,69.96,21.42,71.84z M26.87,77.29c-1.13,1.13-2.97,1.13-4.11,0c-1.13-1.13-1.13-2.98,0-4.11   c1.14-1.14,2.98-1.14,4.12,0C28.01,74.31,28.01,76.16,26.87,77.29z"/>
  <path d="M82.87,65.75L66.19,82.44c-0.37,0.369-0.381,0.97,0,1.34c1.909,1.91,5.489,3.489,8.619,3.489   c1.671,0,3.221-0.46,4.311-1.55l7.04-7.029c3.13-3.131,0.979-10.011-1.94-12.94C83.84,65.38,83.25,65.38,82.87,65.75z M84.82,77.35   l-7.03,7.03c-2.021,2.01-6.93,0.66-9.54-1.32l15.24-15.25C85.48,70.42,86.83,75.34,84.82,77.35z"/>
  <path d="M56.95,61.08L55.6,59.73l-9.77-9.771l-7.08-7.08c-0.37-0.38-0.97-0.38-1.34,0c-0.37,0.37-0.37,0.97,0,1.34l1.51,1.51   l15.34,15.34l1.351,1.35l5.13,5.13c0.37,0.37,0.97,0.37,1.34,0s0.37-0.97,0-1.34L56.95,61.08z"/>
  <path d="M61.45,53.88L46.11,38.54l-1.34-1.34l-0.17-0.17c-0.37-0.37-0.97-0.37-1.34,0c-0.37,0.37-0.37,0.97,0,1.34l0.17,0.17   l6.36,6.36l10.32,10.32l1.35,1.351l5.13,5.13c0.37,0.37,0.97,0.37,1.34,0s0.37-0.97,0-1.34l-5.13-5.13L61.45,53.88z"/>
  <path d="M82.147,63.682c-0.37-0.37-0.972-0.37-1.341,0L64.117,80.37c-0.37,0.37-0.37,0.971,0,1.341c0.371,0.37,0.972,0.37,1.342,0   l16.688-16.688C82.518,64.652,82.518,64.052,82.147,63.682z"/>
  <path d="M80.08,61.613c-0.371-0.369-0.972-0.369-1.342,0L62.05,78.303c-0.37,0.37-0.369,0.971,0,1.341   c0.373,0.373,0.971,0.37,1.341,0L80.08,62.955C80.449,62.584,80.452,61.986,80.08,61.613z"/>
</g>
</svg>