<svg xmlns="http://www.w3.org/2000/svg" xmlns:xlink="http://www.w3.org/1999/xlink" version="1.1" x="0px" y="0px" viewBox="0 0 100 125" enable-background="new 0 0 100 100" xml:space="preserve"><g><g><path d="M4.997,5v90h90.006L4.997,5z M6.456,89.047h5.284v-1.458H6.456v-4.495h10.738v-1.459H6.456v-4.494h5.284v-1.457H6.456    v-4.496h10.738v-1.459H6.456v-4.496h5.284v-1.457H6.456v-4.496h10.738V57.82H6.456v-4.495h5.284v-1.458H6.456v-4.496h10.738    v-1.458H6.456V41.42h5.284v-1.458H6.456v-4.497h10.738v-1.458H6.456v-4.495h5.284v-1.458H6.456V23.56h10.738V22.1H6.456v-4.496    h5.284v-1.458H6.456V8.521l85.026,85.02H6.456V89.047z"/><path d="M21.966,45.497v32.534h32.537L21.966,45.497z M23.425,49.018l27.558,27.555H23.425V49.018z"/></g></g><text x="0" y="115" fill="#000000" font-size="5px" font-weight="bold" font-family="'Helvetica Neue', Helvetica, Arial-Unicode, Arial, Sans-serif">Created by Juan Pablo Bravo</text><text x="0" y="120" fill="#000000" font-size="5px" font-weight="bold" font-family="'Helvetica Neue', Helvetica, Arial-Unicode, Arial, Sans-serif">from the Noun Project</text></svg>