<svg xmlns="http://www.w3.org/2000/svg" xmlns:xlink="http://www.w3.org/1999/xlink" version="1.1" x="0px" y="0px" viewBox="0 0 100 125" enable-background="new 0 0 100 100" xml:space="preserve"><g><path d="M22.8,11.9c-0.4,0-0.8,0-1.1,0.1c-1.8,0.3-3.3,1.4-4.3,3.1c-1,1.6-1.3,3.6-0.9,5.6c0.7,3.6,3.6,6.2,6.9,6.2   c0.4,0,0.8,0,1.1-0.1c3.6-0.7,6-4.6,5.2-8.6C29,14.5,26.1,11.9,22.8,11.9z M24.3,25.7c-0.3,0.1-0.6,0.1-0.9,0.1   c-2.8,0-5.2-2.2-5.8-5.3c-0.3-1.7,0-3.4,0.8-4.8c0.8-1.4,2.1-2.3,3.5-2.6c0.3-0.1,0.6-0.1,0.9-0.1c2.8,0,5.2,2.2,5.8,5.3   C29.3,21.8,27.3,25.1,24.3,25.7z"/><path d="M42.7,23.3c0.4,0,0.7,0,1.1-0.1c1.8-0.3,3.3-1.4,4.3-3c1-1.6,1.3-3.6,1-5.6c-0.7-3.6-3.5-6.3-6.9-6.3c-0.4,0-0.7,0-1.1,0.1   c-1.8,0.3-3.3,1.4-4.3,3c-1,1.6-1.3,3.6-1,5.6C36.5,20.6,39.4,23.3,42.7,23.3z M37.7,12c0.8-1.4,2.1-2.3,3.6-2.5   c0.3-0.1,0.6-0.1,0.9-0.1c2.8,0,5.2,2.3,5.8,5.4c0.3,1.7,0,3.4-0.8,4.8c-0.8,1.4-2.1,2.3-3.6,2.5c-0.3,0.1-0.6,0.1-0.9,0.1   c-2.8,0-5.2-2.3-5.8-5.4C36.6,15.1,36.9,13.4,37.7,12z"/><path d="M86,23.2c0,0,0-0.1,0-0.1c0.6-1.7,0.7-4.9-2.6-6.5c-0.8-0.4-1.5-0.5-2.3-0.5c-2.4,0-4,1.9-4.5,2.8   c-0.1,0.1-0.1,0.1-0.2,0.2L74.9,23c0,0,0,0,0,0l-5.6,13.6L71,6.1c0-0.1,0-0.3-0.1-0.4c-0.1-0.1-0.2-0.2-0.4-0.2L57.6,5   c-0.3,0-0.5,0.2-0.6,0.5l-0.2,3.8l-0.3,7l-0.3,7l-0.3,7l-0.3,7c0,0,0,0,0,0l-0.4,7.2H42.8L42,39c0.8-0.4,1.3-1.2,1.2-2.1   c-0.3-2.4-0.4-8.5,4.1-11.6c3-2.1,4.8-6.2,4.6-10.3c-0.3-3.7-2.2-6.7-5.5-8.4c-2.1-1.1-4.7-1.4-7.2-1L35,6.5   c-1.6,0.3-2.6,1.7-2.6,3.3l-0.8,0.6c-0.1,0-0.1,0.1-0.2,0.1c-0.1,0-0.1-0.1-0.2-0.1l-0.9-0.2c-0.4-1.3-1.6-2.2-3-2.2   c-0.2,0-0.4,0-0.6,0.1l-4.1,0.8c-2.5,0.5-4.8,1.7-6.4,3.5c-2.5,2.7-3.2,6.2-2.1,9.8c1.2,3.9,4.4,7.1,8,8c5.3,1.3,7.3,6.9,8,9.3   c0.2,0.9,1,1.5,1.9,1.5l1,3.6h-4.1c-0.2,0-0.3,0.1-0.4,0.2c-0.1,0.1-0.2,0.3-0.1,0.4l5.4,49.4c0,0.3,0.3,0.5,0.5,0.5h38   c0.3,0,0.5-0.2,0.5-0.5l5.4-49.4c0-0.2,0-0.3-0.1-0.4c-0.1-0.1-0.2-0.2-0.4-0.2h-0.9l7.4-17.3L86,23.2z M81.1,17.1   c0.6,0,1.2,0.1,1.8,0.4c2.8,1.3,2.5,3.8,2.2,4.9l-7.4-3.2C78.2,18.5,79.4,17.1,81.1,17.1z M84.7,23.4l-1.3,2.8l-2.5-1.2   c0,0,0,0,0,0c0,0,0,0,0,0l-2.6-1.1l0,0l-2.3-1.1l1.1-2.7L84.7,23.4z M70.3,44.5l8.1-19.4l1.6,0.7l-8,18.7H70.3z M67.2,44.5   l8.5-20.6l1.8,0.8l-8.3,19.8H67.2z M56.6,37.9l3.4,0.2c0,0,0,0,0,0c0.3,0,0.5-0.2,0.5-0.5c0-0.3-0.2-0.6-0.5-0.6l-3.4-0.2l0.3-5.9   l3.4,0.2c0,0,0,0,0,0c0.3,0,0.5-0.2,0.5-0.5c0-0.3-0.2-0.6-0.5-0.6L57,29.9l0.3-5.9l3.5,0.2c0,0,0,0,0,0c0.3,0,0.5-0.2,0.5-0.5   c0-0.3-0.2-0.6-0.5-0.6l-3.5-0.2l0.3-5.9l3.5,0.2c0,0,0,0,0,0c0.3,0,0.5-0.2,0.5-0.5c0-0.3-0.2-0.6-0.5-0.6l-3.5-0.2l0.3-5.9   l3.5,0.2c0.3,0,0.6-0.2,0.6-0.5c0-0.3-0.2-0.6-0.5-0.6L58,8.9l0.1-2.8l11.7,0.5l-1.9,33l-2,4.9h-9.8L56.6,37.9z M35.9,39.5   l-4.4-22.8l0.6-0.4c0.1-0.1,0.2-0.1,0.3-0.2c0.1,0,0.2,0.1,0.3,0.1l0.7,0.1l4.2,22.9l0.1,1.2c0,0-0.1,0-0.1,0   C36.7,40.5,36.1,39.8,35.9,39.5z M38.9,40.4l-0.1-0.7l2.1-0.4l0.1,0.6C40.6,40,39.8,40.3,38.9,40.4z M33.1,10.5   c0.3-0.1,0.4-0.3,0.4-0.6c-0.2-1.1,0.5-2.2,1.6-2.4l4.1-0.7c2.3-0.4,4.6-0.1,6.6,0.9c2.9,1.5,4.7,4.1,4.9,7.5   c0.3,3.6-1.4,7.5-4.1,9.3c-4.9,3.4-4.8,9.9-4.5,12.6c0.1,0.5-0.3,1-0.8,1.1l-2.6,0.5l-4.2-22.8c0-0.2-0.2-0.4-0.4-0.4L33,15.1   c-0.1,0-0.1,0-0.2,0l-0.7-3.8c0,0,0.1-0.1,0.1-0.1L33.1,10.5z M31.1,39.1c-0.7-2.6-3-8.7-8.8-10.1c-3.2-0.8-6.1-3.7-7.2-7.2   c-1-3.2-0.3-6.3,1.9-8.7c1.4-1.6,3.5-2.7,5.8-3.2l4.1-0.8c0.1,0,0.3,0,0.4,0c1,0,1.8,0.7,2,1.7c0,0.3,0.3,0.4,0.5,0.4c0,0,0,0,0,0   l1.1,0.3c0,0,0.1,0,0.1,0l0.7,3.8c0,0-0.1,0.1-0.1,0.1l-1,0.6c-0.2,0.1-0.3,0.3-0.3,0.6l4.4,22.8l-2.6,0.5c-0.1,0-0.1,0-0.2,0   C31.6,39.8,31.2,39.5,31.1,39.1z M33,40.8l2.2-0.4c0.4,0.5,1.2,1.2,2.5,1.2c0.2,0,0.5,0,0.7,0c0,0,0,0,0,0c0,0,0,0,0,0   c1.1-0.1,2.2-0.4,2.7-0.5l0.5,3.5H34L33,40.8z M71.7,93.9H34.7l-5.3-48.3h37c0,0,0,0,0,0H77L71.7,93.9z M75.5,44.5h-2.3L81,26.3   l2,0.9L75.5,44.5z"/></g><text x="0" y="115" fill="#000000" font-size="5px" font-weight="bold" font-family="'Helvetica Neue', Helvetica, Arial-Unicode, Arial, Sans-serif">Created by parkjisun</text><text x="0" y="120" fill="#000000" font-size="5px" font-weight="bold" font-family="'Helvetica Neue', Helvetica, Arial-Unicode, Arial, Sans-serif">from the Noun Project</text></svg>